<svg width="481" height="480" viewBox="0 0 481 480" fill="none" xmlns="http://www.w3.org/2000/svg">
<path d="M5.61505 479.3C6.71444 479.761 7.89446 479.999 9.08584 480L118.116 480C123.134 480 127.202 475.932 127.202 470.914C127.202 465.897 123.134 461.828 118.116 461.828L31.0191 461.828L197.226 295.621C200.836 292.134 200.936 286.383 197.449 282.774C193.962 279.164 188.211 279.064 184.602 282.551C184.525 282.624 184.452 282.699 184.379 282.774L18.1717 448.981L18.1717 361.884C18.1717 356.866 14.1035 352.798 9.08585 352.798C4.0682 352.798 1.54544e-05 356.866 1.50157e-05 361.884L5.484e-06 470.914C0.00568403 472.106 0.243066 473.284 0.699629 474.385C1.62184 476.61 3.39016 478.378 5.61505 479.3Z" fill="#6D6E71"/>
<path d="M282.685 197.338C286.235 200.887 291.99 200.887 295.54 197.338L461.841 31.0367L461.841 118.183C461.841 123.203 465.912 127.274 470.932 127.274C475.953 127.274 480.023 123.203 480.023 118.183L480.023 9.091C480.018 7.89895 479.78 6.71939 479.323 5.61824C478.401 3.39208 476.631 1.62274 474.405 0.700006C473.304 0.243183 472.125 0.00568398 470.932 1.99942e-06L361.84 -7.53771e-06C356.82 -7.97661e-06 352.749 4.07049 352.749 9.09099C352.749 14.1115 356.82 18.182 361.84 18.182L448.987 18.182L282.685 184.484C279.136 188.034 279.136 193.788 282.685 197.338Z" fill="#6D6E71"/>
</svg>
