<svg width="480" height="480" viewBox="0 0 480 480" fill="none" xmlns="http://www.w3.org/2000/svg">
<path d="M174.946 300.63C173.957 300.215 172.895 300.001 171.823 300H73.6957C69.1798 300 65.5184 303.661 65.5184 308.177C65.5184 312.693 69.1798 316.355 73.6957 316.355H152.083L2.49632 465.941C-0.752093 469.079 -0.842042 474.255 2.29598 477.504C5.434 480.752 10.6102 480.842 13.8586 477.704C13.9271 477.639 13.9935 477.571 14.059 477.504L163.645 327.917V406.304C163.645 410.82 167.307 414.482 171.823 414.482C176.339 414.482 180 410.82 180 406.304V308.177C179.995 307.105 179.781 306.044 179.37 305.054C178.54 303.051 176.949 301.46 174.946 300.63Z" fill="#6D6E71"/>
<path d="M477.604 2.39551C474.409 -0.798502 469.23 -0.798502 466.035 2.39551L316.364 152.067V73.6353C316.364 69.1169 312.7 65.4534 308.182 65.4534C303.663 65.4534 300 69.1169 300 73.6353V171.818C300.005 172.891 300.219 173.953 300.63 174.944C301.46 176.947 303.053 178.54 305.056 179.37C306.047 179.781 307.109 179.995 308.182 180H406.365C410.883 180 414.547 176.337 414.547 171.818C414.547 167.3 410.883 163.636 406.365 163.636H327.933L477.604 13.9647C480.798 10.7697 480.798 5.59054 477.604 2.39551Z" fill="#6D6E71"/>
</svg>
